<svg width="24" height="25" viewBox="0 0 24 25" fill="none" xmlns="http://www.w3.org/2000/svg">
<path d="M10.788 3.753C11.283 2.749 12.714 2.749 13.209 3.753L15.567 8.53L20.84 9.296C21.947 9.457 22.389 10.818 21.588 11.599L17.772 15.319L18.673 20.569C18.863 21.672 17.705 22.513 16.714 21.993L11.998 19.513L7.28303 21.993C6.29303 22.513 5.13503 21.673 5.32303 20.569L6.22403 15.319L2.40903 11.599C1.60803 10.819 2.05003 9.457 3.15703 9.296L8.43003 8.53L10.788 3.753ZM11.998 4.689L9.74003 9.265C9.64314 9.46112 9.50005 9.63076 9.32306 9.75932C9.14608 9.88788 8.9405 9.97151 8.72403 10.003L3.67403 10.737L7.32803 14.299C7.64603 14.609 7.79103 15.056 7.71603 15.494L6.85403 20.524L11.37 18.149C11.5638 18.047 11.7795 17.9938 11.9985 17.9938C12.2175 17.9938 12.4332 18.047 12.627 18.149L17.143 20.523L16.281 15.494C16.244 15.2783 16.2599 15.0568 16.3275 14.8486C16.3951 14.6404 16.5123 14.4518 16.669 14.299L20.323 10.737L15.273 10.003C15.0566 9.97151 14.851 9.88788 14.674 9.75932C14.497 9.63076 14.3539 9.46112 14.257 9.265L11.998 4.689Z" fill="#FFA000"/>
</svg>

